<svg width="49" height="48" viewBox="0 0 49 48" fill="none" xmlns="http://www.w3.org/2000/svg">
<rect x="0.330017" width="48" height="48" rx="24" fill="#0066CC" fill-opacity="0.1"/>
<path d="M24.33 34C29.8529 34 34.33 29.5228 34.33 24C34.33 18.4772 29.8529 14 24.33 14C18.8072 14 14.33 18.4772 14.33 24C14.33 29.5228 18.8072 34 24.33 34Z" stroke="#026487" stroke-width="2" stroke-linecap="round" stroke-linejoin="round"/>
<path d="M21.42 21C21.6551 20.3316 22.1192 19.7681 22.73 19.4091C23.3408 19.0501 24.0589 18.9189 24.7572 19.0387C25.4555 19.1584 26.0889 19.5215 26.5451 20.0635C27.0014 20.6055 27.2511 21.2915 27.25 22C27.25 24 24.25 25 24.25 25" stroke="#026487" stroke-width="2" stroke-linecap="round" stroke-linejoin="round"/>
<path d="M24.33 29H24.34" stroke="#026487" stroke-width="2" stroke-linecap="round" stroke-linejoin="round"/>
</svg>
