<svg width="49" height="48" viewBox="0 0 49 48" fill="none" xmlns="http://www.w3.org/2000/svg">
<rect x="0.330017" width="48" height="48" rx="24" fill="#0066CC" fill-opacity="0.1"/>
<path d="M27.33 14H18.33C17.7996 14 17.2909 14.2107 16.9158 14.5858C16.5407 14.9609 16.33 15.4696 16.33 16V32C16.33 32.5304 16.5407 33.0391 16.9158 33.4142C17.2909 33.7893 17.7996 34 18.33 34H30.33C30.8605 34 31.3692 33.7893 31.7442 33.4142C32.1193 33.0391 32.33 32.5304 32.33 32V19L27.33 14Z" stroke="#026487" stroke-width="2" stroke-linecap="round" stroke-linejoin="round"/>
<path d="M26.33 14V18C26.33 18.5304 26.5407 19.0391 26.9158 19.4142C27.2909 19.7893 27.7996 20 28.33 20H32.33" stroke="#026487" stroke-width="2" stroke-linecap="round" stroke-linejoin="round"/>
<path d="M22.33 21H20.33" stroke="#026487" stroke-width="2" stroke-linecap="round" stroke-linejoin="round"/>
<path d="M28.33 25H20.33" stroke="#026487" stroke-width="2" stroke-linecap="round" stroke-linejoin="round"/>
<path d="M28.33 29H20.33" stroke="#026487" stroke-width="2" stroke-linecap="round" stroke-linejoin="round"/>
</svg>
