<svg width="49" height="48" viewBox="0 0 49 48" fill="none" xmlns="http://www.w3.org/2000/svg">
<rect x="0.660034" width="48" height="48" rx="24" fill="#0066CC" fill-opacity="0.1"/>
<path d="M34.66 28.92V31.92C34.6612 32.1985 34.6041 32.4741 34.4925 32.7293C34.381 32.9845 34.2173 33.2136 34.0121 33.4018C33.8069 33.5901 33.5646 33.7335 33.3008 33.8227C33.037 33.9119 32.7574 33.945 32.48 33.92C29.4029 33.5856 26.447 32.5341 23.85 30.85C21.4339 29.3146 19.3854 27.2661 17.85 24.85C16.16 22.2412 15.1083 19.271 14.78 16.18C14.755 15.9034 14.7879 15.6247 14.8765 15.3616C14.9652 15.0985 15.1076 14.8567 15.2948 14.6516C15.482 14.4465 15.7098 14.2827 15.9638 14.1705C16.2178 14.0583 16.4924 14.0002 16.77 14H19.77C20.2553 13.9952 20.7258 14.1671 21.0938 14.4835C21.4618 14.8 21.7021 15.2394 21.77 15.72C21.8967 16.68 22.1315 17.6227 22.47 18.53C22.6046 18.8879 22.6337 19.2769 22.5539 19.6509C22.4742 20.0248 22.2889 20.3681 22.02 20.64L20.75 21.91C22.1736 24.4135 24.2465 26.4864 26.75 27.91L28.02 26.64C28.2919 26.3711 28.6352 26.1858 29.0091 26.1061C29.3831 26.0263 29.7721 26.0554 30.13 26.19C31.0373 26.5285 31.98 26.7634 32.94 26.89C33.4258 26.9585 33.8694 27.2032 34.1866 27.5775C34.5037 27.9518 34.6722 28.4296 34.66 28.92Z" stroke="#026487" stroke-width="2" stroke-linecap="round" stroke-linejoin="round"/>
</svg>
