<svg width="49" height="48" viewBox="0 0 49 48" fill="none" xmlns="http://www.w3.org/2000/svg">
<rect x="0.660034" width="48" height="48" rx="24" fill="#0066CC" fill-opacity="0.1"/>
<path d="M27.66 26C27.86 25 28.36 24.3 29.16 23.5C30.16 22.6 30.66 21.3 30.66 20C30.66 18.4087 30.0279 16.8826 28.9027 15.7574C27.7775 14.6321 26.2513 14 24.66 14C23.0687 14 21.5426 14.6321 20.4174 15.7574C19.2922 16.8826 18.66 18.4087 18.66 20C18.66 21 18.86 22.2 20.16 23.5C20.86 24.2 21.46 25 21.66 26" stroke="#026487" stroke-width="2" stroke-linecap="round" stroke-linejoin="round"/>
<path d="M21.66 30H27.66" stroke="#026487" stroke-width="2" stroke-linecap="round" stroke-linejoin="round"/>
<path d="M22.66 34H26.66" stroke="#026487" stroke-width="2" stroke-linecap="round" stroke-linejoin="round"/>
</svg>
